<?xml version="1.0" encoding="UTF-8" standalone="no"?>
<svg
   version="1.1"
   x="0px"
   y="0px"
   width="1024"
   viewBox="0 0 1024 1024"
   enable-background="new 0 0 1024 1024"
   xml:space="preserve"
   sodipodi:docname="beacn-utility-icon.svg"
   inkscape:version="1.4.2 (ebf0e940d0, 2025-05-08)"
   height="1024"
   inkscape:export-filename="beacn.png"
   inkscape:export-xdpi="96"
   inkscape:export-ydpi="96"
   id="svg1"
   xmlns:inkscape="http://www.inkscape.org/namespaces/inkscape"
   xmlns:sodipodi="http://sodipodi.sourceforge.net/DTD/sodipodi-0.dtd"
   xmlns="http://www.w3.org/2000/svg"
   xmlns:svg="http://www.w3.org/2000/svg"><defs
   id="defs3" /><sodipodi:namedview
   id="namedview3"
   pagecolor="#ffffff"
   bordercolor="#000000"
   borderopacity="0.25"
   inkscape:showpageshadow="2"
   inkscape:pageopacity="0.0"
   inkscape:pagecheckerboard="true"
   inkscape:deskcolor="#d1d1d1"
   inkscape:zoom="1"
   inkscape:cx="494.5"
   inkscape:cy="508.5"
   inkscape:window-width="2560"
   inkscape:window-height="1380"
   inkscape:window-x="0"
   inkscape:window-y="0"
   inkscape:window-maximized="1"
   inkscape:current-layer="svg1" />



<path
   fill="#000000"
   opacity="1"
   stroke="none"
   d="m 448.39457,155.99596 c 18.10567,-49.87968 22.48601,-99.877797 7.17781,-150.7744022 3.22332,-1.6246322 5.09616,0.6540645 7.10284,1.8251302 74.78456,43.642781 124.70199,106.306082 144.826,191.195882 8.5961,36.26201 9.15387,73.07196 4.27274,110.03257 -7.90608,59.86665 -35.32045,110.78092 -71.30873,157.97788 -27.06258,35.49123 -58.01631,67.68527 -85.89795,102.48235 -32.32448,40.34177 -60.81196,82.91498 -79.6336,131.40648 -16.12653,41.54801 -21.93417,84.86908 -18.85375,128.93424 4.2571,60.89767 28.90146,113.73278 68.69842,159.67639 7.62209,8.7994 15.2404,17.62702 24.22415,25.03612 -1.42611,3.0136 -3.76154,1.9379 -5.47393,1.674 C 378.81991,1005.4861 321.11689,979.56787 269.1333,939.92099 218.08809,900.98976 183.3261,850.83117 163.44425,790.1496 150.78905,751.52456 145.606,711.66994 148.01559,671.18157 c 4.30682,-72.36864 29.74985,-137.44211 70.56503,-196.85294 31.77817,-46.25646 68.90586,-88.20354 105.2627,-130.7875 33.90279,-39.70966 67.38456,-79.8068 94.23675,-124.82614 11.81757,-19.81277 22.2407,-40.39339 30.3145,-62.71903 z"
   id="left"
   style="fill:#ed323d;fill-opacity:1;stroke:#000000;stroke-width:0;stroke-dasharray:none;stroke-opacity:1" /><path
   fill="#000000"
   opacity="1"
   stroke="none"
   d="m 556.09036,561.72247 c 40.58551,-41.81817 78.47752,-84.94023 102.41402,-138.42942 12.69286,-28.36363 20.82406,-57.91493 24.99232,-88.69642 2.26779,-16.74755 2.95252,-33.56434 3.21506,-50.50649 4.2382,-0.20525 5.22959,2.8497 6.81598,4.8529 38.87122,49.0841 64.14022,104.35387 72.57843,166.47135 12.10444,89.10624 -10.92525,167.83987 -72.09225,234.80453 -24.87012,27.22741 -53.49969,50.34248 -80.39602,75.3493 -28.1552,26.17725 -54.28936,53.94007 -72.79392,88.05313 -16.91804,31.18839 -25.10033,64.73745 -28.76496,99.88944 -2.19256,21.03078 0.64386,41.80126 0.55815,63.49151 -5.44491,-2.243 -9.12686,-5.7196 -12.87541,-8.9267 -42.11159,-36.02831 -67.71002,-81.64783 -76.48323,-136.14399 -13.32641,-82.77926 10.39957,-156.19508 58.95934,-222.75921 22.43053,-30.74708 47.14629,-59.60577 73.87249,-87.44993 z"
   id="mid"
   style="fill:#ed323d;fill-opacity:1;stroke:#000000;stroke-width:0;stroke-dasharray:none;stroke-opacity:1" /><path
   fill="#000000"
   opacity="1"
   stroke="none"
   d="m 837.80357,847.84291 c -24.17341,43.79312 -58.31506,77.63964 -98.42749,105.73399 -51.26737,35.90731 -108.70928,55.4754 -170.53212,62.986 -0.44207,0.054 -0.93176,-0.2862 -2.05791,-0.6622 -2.53663,-10.8234 -0.45496,-21.73299 1.6907,-32.55629 13.06498,-65.90057 48.59264,-118.13879 98.2919,-161.87695 32.52946,-28.62781 65.41235,-56.93678 92.79422,-90.84041 37.8739,-46.89479 62.02696,-99.93877 71.46364,-159.56747 1.29385,-8.17568 2.48073,-16.36822 4.08756,-27.00439 16.1294,28.2227 26.29287,56.47072 33.16884,85.90481 17.81909,76.27847 6.60304,148.63894 -30.47934,217.88291 z"
   id="right"
   style="fill:#ed323d;fill-opacity:1;stroke:#000000;stroke-width:0;stroke-dasharray:none;stroke-opacity:1" /></svg>
